<mxfile host="Electron" modified="2024-04-26T02:16:57.984Z" agent="Mozilla/5.0 (Windows NT 10.0; Win64; x64) AppleWebKit/537.36 (KHTML, like Gecko) draw.io/24.2.5 Chrome/120.0.6099.109 Electron/28.1.0 Safari/537.36" etag="-GXqjZZSgtlU7DZod15n" version="24.2.5" type="device">
  <diagram id="C5RBs43oDa-KdzZeNtuy" name="Page-1">
    <mxGraphModel dx="1218" dy="598" grid="1" gridSize="10" guides="1" tooltips="1" connect="1" arrows="1" fold="1" page="1" pageScale="1" pageWidth="827" pageHeight="1169" math="0" shadow="0">
      <root>
        <mxCell id="WIyWlLk6GJQsqaUBKTNV-0" />
        <mxCell id="WIyWlLk6GJQsqaUBKTNV-1" parent="WIyWlLk6GJQsqaUBKTNV-0" />
        <mxCell id="zkfFHV4jXpPFQw0GAbJ--0" value="用户偏好设计表" style="swimlane;fontStyle=2;align=center;verticalAlign=top;childLayout=stackLayout;horizontal=1;startSize=26;horizontalStack=0;resizeParent=1;resizeLast=0;collapsible=1;marginBottom=0;rounded=0;shadow=0;strokeWidth=1;" parent="WIyWlLk6GJQsqaUBKTNV-1" vertex="1">
          <mxGeometry x="40" y="100" width="160" height="160" as="geometry">
            <mxRectangle x="230" y="140" width="160" height="26" as="alternateBounds" />
          </mxGeometry>
        </mxCell>
        <mxCell id="zkfFHV4jXpPFQw0GAbJ--1" value="偏好ID" style="text;align=left;verticalAlign=top;spacingLeft=4;spacingRight=4;overflow=hidden;rotatable=0;points=[[0,0.5],[1,0.5]];portConstraint=eastwest;" parent="zkfFHV4jXpPFQw0GAbJ--0" vertex="1">
          <mxGeometry y="26" width="160" height="26" as="geometry" />
        </mxCell>
        <mxCell id="lxDFtsKEHM6TcFRxOLqS-1" value="" style="line;html=1;strokeWidth=1;align=left;verticalAlign=middle;spacingTop=-1;spacingLeft=3;spacingRight=3;rotatable=0;labelPosition=right;points=[];portConstraint=eastwest;" parent="zkfFHV4jXpPFQw0GAbJ--0" vertex="1">
          <mxGeometry y="52" width="160" height="8" as="geometry" />
        </mxCell>
        <mxCell id="TlW57LDNoZl5apRKl7xq-7" style="edgeStyle=orthogonalEdgeStyle;rounded=0;orthogonalLoop=1;jettySize=auto;html=1;exitX=1;exitY=0.5;exitDx=0;exitDy=0;" parent="zkfFHV4jXpPFQw0GAbJ--0" source="zkfFHV4jXpPFQw0GAbJ--2" edge="1">
          <mxGeometry relative="1" as="geometry">
            <mxPoint x="230" y="10" as="targetPoint" />
            <Array as="points">
              <mxPoint x="231" y="73" />
            </Array>
          </mxGeometry>
        </mxCell>
        <mxCell id="zkfFHV4jXpPFQw0GAbJ--2" value="用户ID" style="text;align=left;verticalAlign=top;spacingLeft=4;spacingRight=4;overflow=hidden;rotatable=0;points=[[0,0.5],[1,0.5]];portConstraint=eastwest;rounded=0;shadow=0;html=0;" parent="zkfFHV4jXpPFQw0GAbJ--0" vertex="1">
          <mxGeometry y="60" width="160" height="26" as="geometry" />
        </mxCell>
        <mxCell id="lxDFtsKEHM6TcFRxOLqS-0" value="" style="line;html=1;strokeWidth=1;align=left;verticalAlign=middle;spacingTop=-1;spacingLeft=3;spacingRight=3;rotatable=0;labelPosition=right;points=[];portConstraint=eastwest;" parent="zkfFHV4jXpPFQw0GAbJ--0" vertex="1">
          <mxGeometry y="86" width="160" height="8" as="geometry" />
        </mxCell>
        <mxCell id="zkfFHV4jXpPFQw0GAbJ--3" value="偏好类型" style="text;align=left;verticalAlign=top;spacingLeft=4;spacingRight=4;overflow=hidden;rotatable=0;points=[[0,0.5],[1,0.5]];portConstraint=eastwest;rounded=0;shadow=0;html=0;" parent="zkfFHV4jXpPFQw0GAbJ--0" vertex="1">
          <mxGeometry y="94" width="160" height="26" as="geometry" />
        </mxCell>
        <mxCell id="zkfFHV4jXpPFQw0GAbJ--4" value="" style="line;html=1;strokeWidth=1;align=left;verticalAlign=middle;spacingTop=-1;spacingLeft=3;spacingRight=3;rotatable=0;labelPosition=right;points=[];portConstraint=eastwest;" parent="zkfFHV4jXpPFQw0GAbJ--0" vertex="1">
          <mxGeometry y="120" width="160" height="8" as="geometry" />
        </mxCell>
        <mxCell id="TlW57LDNoZl5apRKl7xq-51" style="edgeStyle=orthogonalEdgeStyle;rounded=0;orthogonalLoop=1;jettySize=auto;html=1;exitX=1;exitY=0.5;exitDx=0;exitDy=0;entryX=1;entryY=0.5;entryDx=0;entryDy=0;" parent="zkfFHV4jXpPFQw0GAbJ--0" edge="1">
          <mxGeometry relative="1" as="geometry">
            <mxPoint x="160" y="141" as="targetPoint" />
            <mxPoint x="160" y="141" as="sourcePoint" />
          </mxGeometry>
        </mxCell>
        <mxCell id="lxDFtsKEHM6TcFRxOLqS-3" value="更新日期" style="text;align=left;verticalAlign=top;spacingLeft=4;spacingRight=4;overflow=hidden;rotatable=0;points=[[0,0.5],[1,0.5]];portConstraint=eastwest;" parent="zkfFHV4jXpPFQw0GAbJ--0" vertex="1">
          <mxGeometry y="128" width="160" height="26" as="geometry" />
        </mxCell>
        <mxCell id="TlW57LDNoZl5apRKl7xq-6" value="" style="edgeStyle=orthogonalEdgeStyle;rounded=0;orthogonalLoop=1;jettySize=auto;html=1;" parent="WIyWlLk6GJQsqaUBKTNV-1" source="TlW57LDNoZl5apRKl7xq-3" target="TlW57LDNoZl5apRKl7xq-5" edge="1">
          <mxGeometry relative="1" as="geometry" />
        </mxCell>
        <mxCell id="TlW57LDNoZl5apRKl7xq-3" value="系统生成" style="rounded=0;whiteSpace=wrap;html=1;" parent="WIyWlLk6GJQsqaUBKTNV-1" vertex="1">
          <mxGeometry x="294" y="30" width="120" height="30" as="geometry" />
        </mxCell>
        <mxCell id="TlW57LDNoZl5apRKl7xq-4" style="edgeStyle=orthogonalEdgeStyle;rounded=0;orthogonalLoop=1;jettySize=auto;html=1;exitX=1;exitY=0.5;exitDx=0;exitDy=0;entryX=0;entryY=0.5;entryDx=0;entryDy=0;" parent="WIyWlLk6GJQsqaUBKTNV-1" source="zkfFHV4jXpPFQw0GAbJ--1" target="TlW57LDNoZl5apRKl7xq-3" edge="1">
          <mxGeometry relative="1" as="geometry" />
        </mxCell>
        <mxCell id="TlW57LDNoZl5apRKl7xq-5" value="唯一标识每一个偏好设置" style="whiteSpace=wrap;html=1;rounded=0;" parent="WIyWlLk6GJQsqaUBKTNV-1" vertex="1">
          <mxGeometry x="440" y="27.5" width="110" height="32.5" as="geometry" />
        </mxCell>
        <mxCell id="TlW57LDNoZl5apRKl7xq-10" value="" style="edgeStyle=orthogonalEdgeStyle;rounded=0;orthogonalLoop=1;jettySize=auto;html=1;" parent="WIyWlLk6GJQsqaUBKTNV-1" source="TlW57LDNoZl5apRKl7xq-8" target="TlW57LDNoZl5apRKl7xq-9" edge="1">
          <mxGeometry relative="1" as="geometry" />
        </mxCell>
        <mxCell id="TlW57LDNoZl5apRKl7xq-14" style="edgeStyle=orthogonalEdgeStyle;rounded=0;orthogonalLoop=1;jettySize=auto;html=1;" parent="WIyWlLk6GJQsqaUBKTNV-1" source="TlW57LDNoZl5apRKl7xq-8" edge="1">
          <mxGeometry relative="1" as="geometry">
            <mxPoint x="290" y="115" as="targetPoint" />
          </mxGeometry>
        </mxCell>
        <mxCell id="TlW57LDNoZl5apRKl7xq-8" value="系统获取" style="rounded=0;whiteSpace=wrap;html=1;" parent="WIyWlLk6GJQsqaUBKTNV-1" vertex="1">
          <mxGeometry x="294" y="100" width="100" height="30" as="geometry" />
        </mxCell>
        <mxCell id="TlW57LDNoZl5apRKl7xq-9" value="关联用户，确定是谁的偏好设置" style="rounded=0;whiteSpace=wrap;html=1;" parent="WIyWlLk6GJQsqaUBKTNV-1" vertex="1">
          <mxGeometry x="450" y="100" width="100" height="30" as="geometry" />
        </mxCell>
        <mxCell id="TlW57LDNoZl5apRKl7xq-11" style="edgeStyle=orthogonalEdgeStyle;rounded=0;orthogonalLoop=1;jettySize=auto;html=1;exitX=1;exitY=0.5;exitDx=0;exitDy=0;entryX=0;entryY=0.5;entryDx=0;entryDy=0;" parent="WIyWlLk6GJQsqaUBKTNV-1" source="zkfFHV4jXpPFQw0GAbJ--3" edge="1">
          <mxGeometry relative="1" as="geometry">
            <mxPoint x="294" y="178" as="targetPoint" />
            <Array as="points">
              <mxPoint x="270" y="207" />
              <mxPoint x="270" y="178" />
            </Array>
          </mxGeometry>
        </mxCell>
        <mxCell id="TlW57LDNoZl5apRKl7xq-16" value="偏好类型" style="swimlane;fontStyle=2;align=center;verticalAlign=top;childLayout=stackLayout;horizontal=1;startSize=26;horizontalStack=0;resizeParent=1;resizeLast=0;collapsible=1;marginBottom=0;rounded=0;shadow=0;strokeWidth=1;" parent="WIyWlLk6GJQsqaUBKTNV-1" vertex="1">
          <mxGeometry x="294" y="150" width="178" height="181" as="geometry">
            <mxRectangle x="230" y="140" width="160" height="26" as="alternateBounds" />
          </mxGeometry>
        </mxCell>
        <mxCell id="TlW57LDNoZl5apRKl7xq-28" value="接受消息方式" style="text;html=1;align=center;verticalAlign=middle;resizable=0;points=[];autosize=1;strokeColor=none;fillColor=none;" parent="TlW57LDNoZl5apRKl7xq-16" vertex="1">
          <mxGeometry y="26" width="178" height="30" as="geometry" />
        </mxCell>
        <mxCell id="TlW57LDNoZl5apRKl7xq-30" value="白天/夜间设置" style="text;html=1;align=center;verticalAlign=middle;resizable=0;points=[];autosize=1;strokeColor=none;fillColor=none;" parent="TlW57LDNoZl5apRKl7xq-16" vertex="1">
          <mxGeometry y="56" width="178" height="30" as="geometry" />
        </mxCell>
        <mxCell id="TlW57LDNoZl5apRKl7xq-35" value="长辈模式" style="text;html=1;align=center;verticalAlign=middle;resizable=0;points=[];autosize=1;strokeColor=none;fillColor=none;" parent="TlW57LDNoZl5apRKl7xq-16" vertex="1">
          <mxGeometry y="86" width="178" height="30" as="geometry" />
        </mxCell>
        <mxCell id="TlW57LDNoZl5apRKl7xq-41" value="开启位置服务" style="text;html=1;align=center;verticalAlign=middle;resizable=0;points=[];autosize=1;strokeColor=none;fillColor=none;" parent="TlW57LDNoZl5apRKl7xq-16" vertex="1">
          <mxGeometry y="116" width="178" height="30" as="geometry" />
        </mxCell>
        <mxCell id="TlW57LDNoZl5apRKl7xq-50" value="是否允许陌生人发送一条以上消息" style="text;html=1;align=center;verticalAlign=middle;resizable=0;points=[];autosize=1;strokeColor=none;fillColor=none;" parent="TlW57LDNoZl5apRKl7xq-16" vertex="1">
          <mxGeometry y="146" width="178" height="30" as="geometry" />
        </mxCell>
        <mxCell id="TlW57LDNoZl5apRKl7xq-33" value="系统获取" style="rounded=0;whiteSpace=wrap;html=1;" parent="WIyWlLk6GJQsqaUBKTNV-1" vertex="1">
          <mxGeometry x="170" y="300" width="96" height="30" as="geometry" />
        </mxCell>
        <mxCell id="TlW57LDNoZl5apRKl7xq-81" style="edgeStyle=orthogonalEdgeStyle;rounded=0;orthogonalLoop=1;jettySize=auto;html=1;exitX=1;exitY=0.5;exitDx=0;exitDy=0;" parent="WIyWlLk6GJQsqaUBKTNV-1" source="TlW57LDNoZl5apRKl7xq-37" edge="1">
          <mxGeometry relative="1" as="geometry">
            <mxPoint x="640" y="186" as="targetPoint" />
          </mxGeometry>
        </mxCell>
        <mxCell id="TlW57LDNoZl5apRKl7xq-37" value="是否弹窗提醒来信" style="rounded=0;whiteSpace=wrap;html=1;" parent="WIyWlLk6GJQsqaUBKTNV-1" vertex="1">
          <mxGeometry x="510" y="170" width="100" height="32" as="geometry" />
        </mxCell>
        <mxCell id="TlW57LDNoZl5apRKl7xq-38" value="字大内容少清晰" style="rounded=0;whiteSpace=wrap;html=1;fontStyle=1" parent="WIyWlLk6GJQsqaUBKTNV-1" vertex="1">
          <mxGeometry x="510" y="250" width="100" height="32" as="geometry" />
        </mxCell>
        <mxCell id="TlW57LDNoZl5apRKl7xq-39" value="" style="endArrow=classic;html=1;rounded=0;entryX=0;entryY=0.5;entryDx=0;entryDy=0;" parent="WIyWlLk6GJQsqaUBKTNV-1" target="TlW57LDNoZl5apRKl7xq-38" edge="1">
          <mxGeometry width="50" height="50" relative="1" as="geometry">
            <mxPoint x="470" y="260" as="sourcePoint" />
            <mxPoint x="460" y="310" as="targetPoint" />
          </mxGeometry>
        </mxCell>
        <mxCell id="TlW57LDNoZl5apRKl7xq-42" value="" style="endArrow=classic;html=1;rounded=0;entryX=0;entryY=0.5;entryDx=0;entryDy=0;exitX=1.03;exitY=0.407;exitDx=0;exitDy=0;exitPerimeter=0;" parent="WIyWlLk6GJQsqaUBKTNV-1" source="TlW57LDNoZl5apRKl7xq-28" edge="1">
          <mxGeometry width="50" height="50" relative="1" as="geometry">
            <mxPoint x="450" y="185.5" as="sourcePoint" />
            <mxPoint x="510" y="185.5" as="targetPoint" />
          </mxGeometry>
        </mxCell>
        <mxCell id="TlW57LDNoZl5apRKl7xq-43" value="" style="endArrow=classic;html=1;rounded=0;entryX=0;entryY=0.5;entryDx=0;entryDy=0;" parent="WIyWlLk6GJQsqaUBKTNV-1" edge="1">
          <mxGeometry width="50" height="50" relative="1" as="geometry">
            <mxPoint x="480" y="220" as="sourcePoint" />
            <mxPoint x="510" y="220" as="targetPoint" />
            <Array as="points">
              <mxPoint x="480" y="220" />
            </Array>
          </mxGeometry>
        </mxCell>
        <mxCell id="TlW57LDNoZl5apRKl7xq-46" value="背景和字的颜色" style="rounded=0;whiteSpace=wrap;html=1;fontStyle=1" parent="WIyWlLk6GJQsqaUBKTNV-1" vertex="1">
          <mxGeometry x="510" y="210" width="100" height="29" as="geometry" />
        </mxCell>
        <mxCell id="TlW57LDNoZl5apRKl7xq-48" value="" style="endArrow=classic;html=1;rounded=0;" parent="WIyWlLk6GJQsqaUBKTNV-1" edge="1">
          <mxGeometry width="50" height="50" relative="1" as="geometry">
            <mxPoint x="470" y="282" as="sourcePoint" />
            <mxPoint x="510" y="300" as="targetPoint" />
            <Array as="points">
              <mxPoint x="470" y="282" />
              <mxPoint x="480" y="282" />
            </Array>
          </mxGeometry>
        </mxCell>
        <mxCell id="TlW57LDNoZl5apRKl7xq-49" value="推送附近的寻物启事/把你发布的推送给附近的人" style="rounded=0;whiteSpace=wrap;html=1;fontStyle=1" parent="WIyWlLk6GJQsqaUBKTNV-1" vertex="1">
          <mxGeometry x="510" y="290" width="100" height="50" as="geometry" />
        </mxCell>
        <mxCell id="TlW57LDNoZl5apRKl7xq-32" style="edgeStyle=orthogonalEdgeStyle;rounded=0;orthogonalLoop=1;jettySize=auto;html=1;exitX=1;exitY=0.5;exitDx=0;exitDy=0;entryX=0.75;entryY=0;entryDx=0;entryDy=0;" parent="WIyWlLk6GJQsqaUBKTNV-1" source="lxDFtsKEHM6TcFRxOLqS-3" target="TlW57LDNoZl5apRKl7xq-33" edge="1">
          <mxGeometry relative="1" as="geometry">
            <mxPoint x="220" y="370" as="targetPoint" />
          </mxGeometry>
        </mxCell>
        <mxCell id="TlW57LDNoZl5apRKl7xq-54" value="" style="endArrow=classic;startArrow=classic;html=1;rounded=0;exitX=1.025;exitY=0.044;exitDx=0;exitDy=0;exitPerimeter=0;entryX=0;entryY=0.5;entryDx=0;entryDy=0;" parent="WIyWlLk6GJQsqaUBKTNV-1" source="TlW57LDNoZl5apRKl7xq-16" target="TlW57LDNoZl5apRKl7xq-55" edge="1">
          <mxGeometry width="50" height="50" relative="1" as="geometry">
            <mxPoint x="470" y="170" as="sourcePoint" />
            <mxPoint x="520" y="158" as="targetPoint" />
          </mxGeometry>
        </mxCell>
        <mxCell id="TlW57LDNoZl5apRKl7xq-55" value="用户指定" style="rounded=0;whiteSpace=wrap;html=1;" parent="WIyWlLk6GJQsqaUBKTNV-1" vertex="1">
          <mxGeometry x="570" y="140" width="100" height="30" as="geometry" />
        </mxCell>
        <mxCell id="TlW57LDNoZl5apRKl7xq-58" value="" style="edgeStyle=orthogonalEdgeStyle;rounded=0;orthogonalLoop=1;jettySize=auto;html=1;" parent="WIyWlLk6GJQsqaUBKTNV-1" source="TlW57LDNoZl5apRKl7xq-56" target="TlW57LDNoZl5apRKl7xq-57" edge="1">
          <mxGeometry relative="1" as="geometry" />
        </mxCell>
        <mxCell id="a3AY6e1DNQqjaTQtt7DX-4" value="" style="edgeStyle=orthogonalEdgeStyle;rounded=0;orthogonalLoop=1;jettySize=auto;html=1;" edge="1" parent="WIyWlLk6GJQsqaUBKTNV-1" source="TlW57LDNoZl5apRKl7xq-56" target="a3AY6e1DNQqjaTQtt7DX-3">
          <mxGeometry relative="1" as="geometry" />
        </mxCell>
        <mxCell id="TlW57LDNoZl5apRKl7xq-56" value="用户修改个人偏好" style="rounded=0;whiteSpace=wrap;html=1;" parent="WIyWlLk6GJQsqaUBKTNV-1" vertex="1">
          <mxGeometry x="40" y="410" width="120" height="60" as="geometry" />
        </mxCell>
        <mxCell id="TlW57LDNoZl5apRKl7xq-65" value="" style="edgeStyle=orthogonalEdgeStyle;rounded=0;orthogonalLoop=1;jettySize=auto;html=1;" parent="WIyWlLk6GJQsqaUBKTNV-1" source="TlW57LDNoZl5apRKl7xq-57" target="TlW57LDNoZl5apRKl7xq-64" edge="1">
          <mxGeometry relative="1" as="geometry" />
        </mxCell>
        <mxCell id="a3AY6e1DNQqjaTQtt7DX-1" value="" style="edgeStyle=orthogonalEdgeStyle;rounded=0;orthogonalLoop=1;jettySize=auto;html=1;" edge="1" parent="WIyWlLk6GJQsqaUBKTNV-1" source="TlW57LDNoZl5apRKl7xq-57" target="a3AY6e1DNQqjaTQtt7DX-0">
          <mxGeometry relative="1" as="geometry" />
        </mxCell>
        <mxCell id="TlW57LDNoZl5apRKl7xq-57" value="找到修改后对应的偏好ID，若没有则新建一个偏好ID，进行用户ID和偏好ID的重新匹配" style="whiteSpace=wrap;html=1;rounded=0;" parent="WIyWlLk6GJQsqaUBKTNV-1" vertex="1">
          <mxGeometry x="240" y="400" width="120" height="80" as="geometry" />
        </mxCell>
        <mxCell id="TlW57LDNoZl5apRKl7xq-64" value="更新修改日期" style="whiteSpace=wrap;html=1;rounded=0;" parent="WIyWlLk6GJQsqaUBKTNV-1" vertex="1">
          <mxGeometry x="440" y="410" width="120" height="60" as="geometry" />
        </mxCell>
        <mxCell id="TlW57LDNoZl5apRKl7xq-70" value="" style="endArrow=none;html=1;rounded=0;" parent="WIyWlLk6GJQsqaUBKTNV-1" edge="1">
          <mxGeometry width="50" height="50" relative="1" as="geometry">
            <mxPoint y="620" as="sourcePoint" />
            <mxPoint x="820" y="620" as="targetPoint" />
          </mxGeometry>
        </mxCell>
        <mxCell id="TlW57LDNoZl5apRKl7xq-71" value="用户订阅表" style="swimlane;fontStyle=2;align=center;verticalAlign=top;childLayout=stackLayout;horizontal=1;startSize=26;horizontalStack=0;resizeParent=1;resizeLast=0;collapsible=1;marginBottom=0;rounded=0;shadow=0;strokeWidth=1;" parent="WIyWlLk6GJQsqaUBKTNV-1" vertex="1">
          <mxGeometry x="50" y="690" width="160" height="202" as="geometry">
            <mxRectangle x="230" y="140" width="160" height="26" as="alternateBounds" />
          </mxGeometry>
        </mxCell>
        <mxCell id="TlW57LDNoZl5apRKl7xq-73" value="" style="line;html=1;strokeWidth=1;align=left;verticalAlign=middle;spacingTop=-1;spacingLeft=3;spacingRight=3;rotatable=0;labelPosition=right;points=[];portConstraint=eastwest;" parent="TlW57LDNoZl5apRKl7xq-71" vertex="1">
          <mxGeometry y="26" width="160" height="8" as="geometry" />
        </mxCell>
        <mxCell id="TlW57LDNoZl5apRKl7xq-74" style="edgeStyle=orthogonalEdgeStyle;rounded=0;orthogonalLoop=1;jettySize=auto;html=1;exitX=1;exitY=0.5;exitDx=0;exitDy=0;" parent="TlW57LDNoZl5apRKl7xq-71" source="TlW57LDNoZl5apRKl7xq-75" edge="1">
          <mxGeometry relative="1" as="geometry">
            <mxPoint x="230" y="10" as="targetPoint" />
            <Array as="points">
              <mxPoint x="231" y="47" />
            </Array>
          </mxGeometry>
        </mxCell>
        <mxCell id="TlW57LDNoZl5apRKl7xq-75" value="订阅ID" style="text;align=left;verticalAlign=top;spacingLeft=4;spacingRight=4;overflow=hidden;rotatable=0;points=[[0,0.5],[1,0.5]];portConstraint=eastwest;rounded=0;shadow=0;html=0;" parent="TlW57LDNoZl5apRKl7xq-71" vertex="1">
          <mxGeometry y="34" width="160" height="26" as="geometry" />
        </mxCell>
        <mxCell id="TlW57LDNoZl5apRKl7xq-76" value="" style="line;html=1;strokeWidth=1;align=left;verticalAlign=middle;spacingTop=-1;spacingLeft=3;spacingRight=3;rotatable=0;labelPosition=right;points=[];portConstraint=eastwest;" parent="TlW57LDNoZl5apRKl7xq-71" vertex="1">
          <mxGeometry y="60" width="160" height="8" as="geometry" />
        </mxCell>
        <mxCell id="TlW57LDNoZl5apRKl7xq-77" value="用户ID" style="text;align=left;verticalAlign=top;spacingLeft=4;spacingRight=4;overflow=hidden;rotatable=0;points=[[0,0.5],[1,0.5]];portConstraint=eastwest;rounded=0;shadow=0;html=0;" parent="TlW57LDNoZl5apRKl7xq-71" vertex="1">
          <mxGeometry y="68" width="160" height="26" as="geometry" />
        </mxCell>
        <mxCell id="TlW57LDNoZl5apRKl7xq-78" value="" style="line;html=1;strokeWidth=1;align=left;verticalAlign=middle;spacingTop=-1;spacingLeft=3;spacingRight=3;rotatable=0;labelPosition=right;points=[];portConstraint=eastwest;" parent="TlW57LDNoZl5apRKl7xq-71" vertex="1">
          <mxGeometry y="94" width="160" height="8" as="geometry" />
        </mxCell>
        <mxCell id="TlW57LDNoZl5apRKl7xq-79" style="edgeStyle=orthogonalEdgeStyle;rounded=0;orthogonalLoop=1;jettySize=auto;html=1;exitX=1;exitY=0.5;exitDx=0;exitDy=0;entryX=1;entryY=0.5;entryDx=0;entryDy=0;" parent="TlW57LDNoZl5apRKl7xq-71" edge="1">
          <mxGeometry relative="1" as="geometry">
            <mxPoint x="160" y="141" as="targetPoint" />
            <mxPoint x="160" y="141" as="sourcePoint" />
          </mxGeometry>
        </mxCell>
        <mxCell id="TlW57LDNoZl5apRKl7xq-95" style="edgeStyle=orthogonalEdgeStyle;rounded=0;orthogonalLoop=1;jettySize=auto;html=1;exitX=1;exitY=0.5;exitDx=0;exitDy=0;" parent="TlW57LDNoZl5apRKl7xq-71" source="TlW57LDNoZl5apRKl7xq-80" edge="1">
          <mxGeometry relative="1" as="geometry">
            <mxPoint x="350" y="116" as="targetPoint" />
          </mxGeometry>
        </mxCell>
        <mxCell id="TlW57LDNoZl5apRKl7xq-80" value="订阅类型" style="text;align=left;verticalAlign=top;spacingLeft=4;spacingRight=4;overflow=hidden;rotatable=0;points=[[0,0.5],[1,0.5]];portConstraint=eastwest;" parent="TlW57LDNoZl5apRKl7xq-71" vertex="1">
          <mxGeometry y="102" width="160" height="28" as="geometry" />
        </mxCell>
        <mxCell id="TlW57LDNoZl5apRKl7xq-85" value="" style="line;html=1;strokeWidth=1;align=left;verticalAlign=middle;spacingTop=-1;spacingLeft=3;spacingRight=3;rotatable=0;labelPosition=right;points=[];portConstraint=eastwest;" parent="TlW57LDNoZl5apRKl7xq-71" vertex="1">
          <mxGeometry y="130" width="160" height="8" as="geometry" />
        </mxCell>
        <mxCell id="TlW57LDNoZl5apRKl7xq-83" value="订阅状态" style="text;align=left;verticalAlign=top;spacingLeft=4;spacingRight=4;overflow=hidden;rotatable=0;points=[[0,0.5],[1,0.5]];portConstraint=eastwest;" parent="TlW57LDNoZl5apRKl7xq-71" vertex="1">
          <mxGeometry y="138" width="160" height="28" as="geometry" />
        </mxCell>
        <mxCell id="TlW57LDNoZl5apRKl7xq-86" value="" style="line;html=1;strokeWidth=1;align=left;verticalAlign=middle;spacingTop=-1;spacingLeft=3;spacingRight=3;rotatable=0;labelPosition=right;points=[];portConstraint=eastwest;" parent="TlW57LDNoZl5apRKl7xq-71" vertex="1">
          <mxGeometry y="166" width="160" height="8" as="geometry" />
        </mxCell>
        <mxCell id="TlW57LDNoZl5apRKl7xq-84" value="创建日期" style="text;align=left;verticalAlign=top;spacingLeft=4;spacingRight=4;overflow=hidden;rotatable=0;points=[[0,0.5],[1,0.5]];portConstraint=eastwest;" parent="TlW57LDNoZl5apRKl7xq-71" vertex="1">
          <mxGeometry y="174" width="160" height="28" as="geometry" />
        </mxCell>
        <mxCell id="TlW57LDNoZl5apRKl7xq-82" value="考虑关联订阅表？" style="rounded=0;whiteSpace=wrap;html=1;" parent="WIyWlLk6GJQsqaUBKTNV-1" vertex="1">
          <mxGeometry x="640" y="172" width="100" height="30" as="geometry" />
        </mxCell>
        <mxCell id="TlW57LDNoZl5apRKl7xq-88" value="系统获取" style="rounded=0;whiteSpace=wrap;html=1;" parent="WIyWlLk6GJQsqaUBKTNV-1" vertex="1">
          <mxGeometry x="262" y="862" width="96" height="30" as="geometry" />
        </mxCell>
        <mxCell id="TlW57LDNoZl5apRKl7xq-89" value="系统生成" style="rounded=0;whiteSpace=wrap;html=1;" parent="WIyWlLk6GJQsqaUBKTNV-1" vertex="1">
          <mxGeometry x="240" y="670" width="120" height="30" as="geometry" />
        </mxCell>
        <mxCell id="TlW57LDNoZl5apRKl7xq-90" value="系统获取" style="rounded=0;whiteSpace=wrap;html=1;" parent="WIyWlLk6GJQsqaUBKTNV-1" vertex="1">
          <mxGeometry x="260" y="756" width="100" height="30" as="geometry" />
        </mxCell>
        <mxCell id="TlW57LDNoZl5apRKl7xq-91" style="edgeStyle=orthogonalEdgeStyle;rounded=0;orthogonalLoop=1;jettySize=auto;html=1;exitX=1;exitY=0.5;exitDx=0;exitDy=0;entryX=0;entryY=0.5;entryDx=0;entryDy=0;" parent="WIyWlLk6GJQsqaUBKTNV-1" source="TlW57LDNoZl5apRKl7xq-77" target="TlW57LDNoZl5apRKl7xq-90" edge="1">
          <mxGeometry relative="1" as="geometry" />
        </mxCell>
        <mxCell id="TlW57LDNoZl5apRKl7xq-94" value="激活/暂停" style="rounded=0;whiteSpace=wrap;html=1;" parent="WIyWlLk6GJQsqaUBKTNV-1" vertex="1">
          <mxGeometry x="260" y="825" width="100" height="34" as="geometry" />
        </mxCell>
        <mxCell id="TlW57LDNoZl5apRKl7xq-100" value="" style="edgeStyle=orthogonalEdgeStyle;rounded=0;orthogonalLoop=1;jettySize=auto;html=1;" parent="WIyWlLk6GJQsqaUBKTNV-1" source="TlW57LDNoZl5apRKl7xq-96" target="TlW57LDNoZl5apRKl7xq-99" edge="1">
          <mxGeometry relative="1" as="geometry" />
        </mxCell>
        <mxCell id="TlW57LDNoZl5apRKl7xq-96" value="用户消息弹窗" style="rounded=0;whiteSpace=wrap;html=1;" parent="WIyWlLk6GJQsqaUBKTNV-1" vertex="1">
          <mxGeometry x="400" y="786" width="100" height="34" as="geometry" />
        </mxCell>
        <mxCell id="TlW57LDNoZl5apRKl7xq-92" style="edgeStyle=orthogonalEdgeStyle;rounded=0;orthogonalLoop=1;jettySize=auto;html=1;exitX=1;exitY=0.5;exitDx=0;exitDy=0;entryX=0;entryY=0.5;entryDx=0;entryDy=0;" parent="WIyWlLk6GJQsqaUBKTNV-1" source="TlW57LDNoZl5apRKl7xq-83" target="TlW57LDNoZl5apRKl7xq-94" edge="1">
          <mxGeometry relative="1" as="geometry">
            <mxPoint x="250" y="842" as="targetPoint" />
          </mxGeometry>
        </mxCell>
        <mxCell id="TlW57LDNoZl5apRKl7xq-97" value="关注失物状态改变弹窗" style="whiteSpace=wrap;html=1;rounded=0;" parent="WIyWlLk6GJQsqaUBKTNV-1" vertex="1">
          <mxGeometry x="400" y="820" width="100" height="33" as="geometry" />
        </mxCell>
        <mxCell id="TlW57LDNoZl5apRKl7xq-102" value="" style="edgeStyle=orthogonalEdgeStyle;rounded=0;orthogonalLoop=1;jettySize=auto;html=1;" parent="WIyWlLk6GJQsqaUBKTNV-1" source="TlW57LDNoZl5apRKl7xq-99" target="TlW57LDNoZl5apRKl7xq-101" edge="1">
          <mxGeometry relative="1" as="geometry" />
        </mxCell>
        <mxCell id="TlW57LDNoZl5apRKl7xq-119" style="edgeStyle=orthogonalEdgeStyle;rounded=0;orthogonalLoop=1;jettySize=auto;html=1;exitX=1;exitY=0.5;exitDx=0;exitDy=0;entryX=0;entryY=0.5;entryDx=0;entryDy=0;" parent="WIyWlLk6GJQsqaUBKTNV-1" source="TlW57LDNoZl5apRKl7xq-99" target="TlW57LDNoZl5apRKl7xq-117" edge="1">
          <mxGeometry relative="1" as="geometry" />
        </mxCell>
        <mxCell id="TlW57LDNoZl5apRKl7xq-99" value="特定物品类别的新失物登记" style="whiteSpace=wrap;html=1;rounded=0;" parent="WIyWlLk6GJQsqaUBKTNV-1" vertex="1">
          <mxGeometry x="400" y="745" width="100" height="41" as="geometry" />
        </mxCell>
        <mxCell id="TlW57LDNoZl5apRKl7xq-101" value="特定位置附近新失物登记推送" style="whiteSpace=wrap;html=1;rounded=0;" parent="WIyWlLk6GJQsqaUBKTNV-1" vertex="1">
          <mxGeometry x="400" y="715.5" width="100" height="29.5" as="geometry" />
        </mxCell>
        <mxCell id="TlW57LDNoZl5apRKl7xq-105" value="" style="edgeStyle=orthogonalEdgeStyle;rounded=0;orthogonalLoop=1;jettySize=auto;html=1;exitX=1;exitY=0.5;exitDx=0;exitDy=0;" parent="WIyWlLk6GJQsqaUBKTNV-1" source="TlW57LDNoZl5apRKl7xq-103" target="TlW57LDNoZl5apRKl7xq-104" edge="1">
          <mxGeometry relative="1" as="geometry" />
        </mxCell>
        <mxCell id="TlW57LDNoZl5apRKl7xq-103" value="用户修改订阅状态" style="rounded=0;whiteSpace=wrap;html=1;" parent="WIyWlLk6GJQsqaUBKTNV-1" vertex="1">
          <mxGeometry x="50" y="960" width="120" height="60" as="geometry" />
        </mxCell>
        <mxCell id="TlW57LDNoZl5apRKl7xq-110" value="" style="edgeStyle=orthogonalEdgeStyle;rounded=0;orthogonalLoop=1;jettySize=auto;html=1;" parent="WIyWlLk6GJQsqaUBKTNV-1" source="TlW57LDNoZl5apRKl7xq-104" target="TlW57LDNoZl5apRKl7xq-109" edge="1">
          <mxGeometry relative="1" as="geometry" />
        </mxCell>
        <mxCell id="TlW57LDNoZl5apRKl7xq-104" value="暂停（默认激活状态）" style="whiteSpace=wrap;html=1;rounded=0;" parent="WIyWlLk6GJQsqaUBKTNV-1" vertex="1">
          <mxGeometry x="250" y="960" width="130" height="60" as="geometry" />
        </mxCell>
        <mxCell id="TlW57LDNoZl5apRKl7xq-113" value="" style="edgeStyle=orthogonalEdgeStyle;rounded=0;orthogonalLoop=1;jettySize=auto;html=1;" parent="WIyWlLk6GJQsqaUBKTNV-1" source="TlW57LDNoZl5apRKl7xq-109" target="TlW57LDNoZl5apRKl7xq-112" edge="1">
          <mxGeometry relative="1" as="geometry" />
        </mxCell>
        <mxCell id="TlW57LDNoZl5apRKl7xq-121" value="" style="edgeStyle=orthogonalEdgeStyle;rounded=0;orthogonalLoop=1;jettySize=auto;html=1;" parent="WIyWlLk6GJQsqaUBKTNV-1" source="TlW57LDNoZl5apRKl7xq-109" target="TlW57LDNoZl5apRKl7xq-120" edge="1">
          <mxGeometry relative="1" as="geometry" />
        </mxCell>
        <mxCell id="TlW57LDNoZl5apRKl7xq-109" value="订阅状态栏目改变" style="whiteSpace=wrap;html=1;rounded=0;" parent="WIyWlLk6GJQsqaUBKTNV-1" vertex="1">
          <mxGeometry x="430" y="960" width="120" height="60" as="geometry" />
        </mxCell>
        <mxCell id="TlW57LDNoZl5apRKl7xq-112" value="订阅ID&amp;amp;订阅类型改变" style="whiteSpace=wrap;html=1;rounded=0;" parent="WIyWlLk6GJQsqaUBKTNV-1" vertex="1">
          <mxGeometry x="430" y="1060" width="120" height="30" as="geometry" />
        </mxCell>
        <mxCell id="TlW57LDNoZl5apRKl7xq-117" value="要不要做成一个表？形成都可以修改的状态，类似偏好设计" style="rhombus;whiteSpace=wrap;html=1;" parent="WIyWlLk6GJQsqaUBKTNV-1" vertex="1">
          <mxGeometry x="570" y="738.5" width="170" height="81.5" as="geometry" />
        </mxCell>
        <mxCell id="TlW57LDNoZl5apRKl7xq-120" value="更新修改日期" style="whiteSpace=wrap;html=1;rounded=0;" parent="WIyWlLk6GJQsqaUBKTNV-1" vertex="1">
          <mxGeometry x="630" y="960" width="120" height="60" as="geometry" />
        </mxCell>
        <mxCell id="a3AY6e1DNQqjaTQtt7DX-0" value="偏好类型和偏好ID存在依赖，可以考虑设计两个表，用偏好ID关联" style="whiteSpace=wrap;html=1;rounded=0;" vertex="1" parent="WIyWlLk6GJQsqaUBKTNV-1">
          <mxGeometry x="230" y="527.5" width="140" height="60" as="geometry" />
        </mxCell>
        <mxCell id="a3AY6e1DNQqjaTQtt7DX-3" value="实际上修改的是&lt;div&gt;偏好类型表&lt;/div&gt;" style="whiteSpace=wrap;html=1;rounded=0;" vertex="1" parent="WIyWlLk6GJQsqaUBKTNV-1">
          <mxGeometry x="40" y="527.5" width="120" height="60" as="geometry" />
        </mxCell>
        <mxCell id="a3AY6e1DNQqjaTQtt7DX-5" style="edgeStyle=orthogonalEdgeStyle;rounded=0;orthogonalLoop=1;jettySize=auto;html=1;exitX=1;exitY=0.5;exitDx=0;exitDy=0;entryX=0;entryY=0.5;entryDx=0;entryDy=0;" edge="1" parent="WIyWlLk6GJQsqaUBKTNV-1" source="TlW57LDNoZl5apRKl7xq-84" target="TlW57LDNoZl5apRKl7xq-88">
          <mxGeometry relative="1" as="geometry" />
        </mxCell>
      </root>
    </mxGraphModel>
  </diagram>
</mxfile>
